<svg width="90" height="11" viewBox="0 0 90 11" fill="none" xmlns="http://www.w3.org/2000/svg">
<path d="M5.236 0.451999L8.442 7.662C8.62867 8.082 8.78267 8.39933 8.904 8.614C9.02533 8.81933 9.13733 8.964 9.24 9.048C9.352 9.12267 9.478 9.16933 9.618 9.188C9.68333 9.412 9.716 9.69667 9.716 10.042C9.56667 10.0327 9.37067 10.0233 9.128 10.014C8.88533 10.014 8.638 10.0093 8.386 10C8.14333 10 7.94733 10 7.798 10C7.64867 10 7.43867 10 7.168 10C6.89733 10.0093 6.62667 10.014 6.356 10.014C6.09467 10.0233 5.894 10.0327 5.754 10.042C5.754 9.678 5.79133 9.39333 5.866 9.188C6.21133 9.132 6.412 9.02933 6.468 8.88C6.53333 8.73067 6.48667 8.474 6.328 8.11L5.992 7.312C5.432 7.312 4.858 7.32133 4.27 7.34C3.682 7.34933 3.108 7.37267 2.548 7.41L2.366 7.9C2.21667 8.27333 2.17933 8.572 2.254 8.796C2.32867 9.02 2.53867 9.15067 2.884 9.188C2.94933 9.42133 2.982 9.706 2.982 10.042C2.82333 10.0233 2.59467 10.0093 2.296 10C1.99733 10 1.73133 10 1.498 10C1.26467 10 1.03133 10.0047 0.798 10.014C0.564667 10.0233 0.378 10.0327 0.238 10.042C0.238 9.89267 0.247333 9.748 0.266 9.608C0.284667 9.45867 0.317333 9.31867 0.364 9.188C0.522667 9.16 0.658 9.104 0.77 9.02C0.882 8.92667 0.989333 8.782 1.092 8.586C1.204 8.38067 1.33467 8.096 1.484 7.732L4.41 0.521999C4.55 0.494 4.68067 0.475333 4.802 0.465999C4.92333 0.456666 5.068 0.451999 5.236 0.451999ZM3.598 4.722L2.898 6.542H5.656L4.872 4.722C4.72267 4.39533 4.592 4.092 4.48 3.812C4.37733 3.52267 4.28867 3.23333 4.214 2.944C4.12067 3.24267 4.02267 3.53667 3.92 3.826C3.82667 4.11533 3.71933 4.414 3.598 4.722ZM10.8211 10.028C10.8211 9.89733 10.8305 9.74333 10.8491 9.566C10.8771 9.38867 10.9051 9.24867 10.9331 9.146C11.1571 9.12733 11.3251 9.09 11.4371 9.034C11.5585 8.96867 11.6378 8.852 11.6751 8.684C11.7125 8.516 11.7311 8.264 11.7311 7.928V5.044C11.7311 4.71733 11.7125 4.47467 11.6751 4.316C11.6378 4.15733 11.5585 4.05 11.4371 3.994C11.3251 3.938 11.1571 3.89133 10.9331 3.854C10.8958 3.742 10.8678 3.602 10.8491 3.434C10.8305 3.266 10.8211 3.112 10.8211 2.972C10.9611 2.972 11.1525 2.97667 11.3951 2.986C11.6378 2.986 11.8851 2.99067 12.1371 3C12.3985 3 12.6225 3 12.8091 3C13.0798 3 13.3831 3 13.7191 3C14.0551 2.99067 14.3351 2.98133 14.5591 2.972C14.5591 3.14933 14.5545 3.31267 14.5451 3.462C14.5358 3.602 14.5125 3.73267 14.4751 3.854C14.2978 3.882 14.1578 3.92867 14.0551 3.994C13.9618 4.05 13.8965 4.15733 13.8591 4.316C13.8218 4.47467 13.8031 4.71733 13.8031 5.044V5.912C14.1671 5.912 14.4518 5.884 14.6571 5.828C14.8625 5.772 15.0398 5.65533 15.1891 5.478C15.3478 5.30067 15.5438 5.03467 15.7771 4.68C16.0945 4.176 16.3605 3.798 16.5751 3.546C16.7991 3.294 17.0231 3.126 17.2471 3.042C17.4805 2.958 17.7698 2.916 18.1151 2.916C18.2645 2.916 18.4185 2.92533 18.5771 2.944C18.7358 2.96267 18.8665 2.98133 18.9691 3C18.9505 3.26133 18.9411 3.58333 18.9411 3.966C18.9505 4.34867 18.9785 4.666 19.0251 4.918C18.6705 5.03933 18.3158 5.072 17.9611 5.016C17.9145 4.78267 17.8491 4.61933 17.7651 4.526C17.6811 4.43267 17.5691 4.386 17.4291 4.386C17.2985 4.386 17.1678 4.43267 17.0371 4.526C16.9065 4.61933 16.7478 4.81533 16.5611 5.114C16.3838 5.38467 16.2345 5.59467 16.1131 5.744C15.9918 5.884 15.8611 5.996 15.7211 6.08C16.0011 6.11733 16.2345 6.18267 16.4211 6.276C16.6078 6.36933 16.7758 6.514 16.9251 6.71C17.0838 6.89667 17.2565 7.14867 17.4431 7.466C17.6485 7.83 17.8165 8.11933 17.9471 8.334C18.0778 8.53933 18.2038 8.698 18.3251 8.81C18.4465 8.91267 18.5818 8.98733 18.7311 9.034C18.8805 9.07133 19.0718 9.10867 19.3051 9.146C19.3051 9.29533 19.2958 9.454 19.2771 9.622C19.2585 9.78067 19.2305 9.90667 19.1931 10C18.7451 10 18.3111 10.0047 17.8911 10.014C17.4711 10.0233 17.0418 10.0513 16.6031 10.098C16.3978 9.93 16.2251 9.71067 16.0851 9.44C15.9545 9.16933 15.8285 8.88 15.7071 8.572C15.5951 8.264 15.4598 7.97467 15.3011 7.704C15.1518 7.424 14.9558 7.19533 14.7131 7.018C14.4798 6.84067 14.1765 6.752 13.8031 6.752V7.928C13.8031 8.264 13.8218 8.516 13.8591 8.684C13.8965 8.852 13.9618 8.96867 14.0551 9.034C14.1578 9.09 14.3025 9.12733 14.4891 9.146C14.5358 9.37 14.5591 9.664 14.5591 10.028C14.3725 10.0187 14.1298 10.0093 13.8311 10C13.5418 10 13.2198 10 12.8651 10C12.5198 10 12.1605 10 11.7871 10C11.4138 10.0093 11.0918 10.0187 10.8211 10.028ZM24.5618 2.902C25.0285 2.902 25.4858 2.94867 25.9338 3.042C26.3911 3.13533 26.8391 3.27067 27.2778 3.448C27.2218 3.68133 27.1845 3.938 27.1658 4.218C27.1471 4.48867 27.1378 4.764 27.1378 5.044C27.0351 5.1 26.8811 5.142 26.6758 5.17C26.4705 5.18867 26.2838 5.198 26.1158 5.198C26.0971 4.68467 25.9525 4.316 25.6818 4.092C25.4205 3.868 25.0658 3.756 24.6178 3.756C24.0951 3.756 23.6751 3.87267 23.3578 4.106C23.0405 4.33 22.8118 4.62867 22.6718 5.002C22.5411 5.37533 22.4758 5.77667 22.4758 6.206C22.4758 6.74733 22.5691 7.23733 22.7558 7.676C22.9518 8.10533 23.2458 8.446 23.6378 8.698C24.0391 8.95 24.5431 9.076 25.1498 9.076C25.4671 9.076 25.7938 9.04333 26.1298 8.978C26.4751 8.91267 26.8158 8.81 27.1518 8.67C27.3105 8.81 27.4085 9.01067 27.4458 9.272C27.0911 9.468 26.6711 9.65467 26.1858 9.832C25.7098 10.0093 25.1451 10.098 24.4918 10.098C23.6705 10.098 22.9471 9.944 22.3218 9.636C21.7058 9.328 21.2251 8.90333 20.8798 8.362C20.5345 7.81133 20.3618 7.18133 20.3618 6.472C20.3618 5.884 20.4738 5.37067 20.6978 4.932C20.9311 4.484 21.2438 4.11067 21.6358 3.812C22.0371 3.504 22.4851 3.27533 22.9798 3.126C23.4838 2.97667 24.0111 2.902 24.5618 2.902ZM28.95 10.028C28.95 9.90667 28.9594 9.762 28.978 9.594C29.006 9.41667 29.034 9.28133 29.062 9.188C29.286 9.16933 29.454 9.132 29.566 9.076C29.678 9.01067 29.7527 8.89867 29.79 8.74C29.8367 8.572 29.86 8.32467 29.86 7.998V4.974C29.86 4.65667 29.8367 4.42333 29.79 4.274C29.7527 4.11533 29.678 4.008 29.566 3.952C29.454 3.88667 29.286 3.84 29.062 3.812C29.0247 3.70933 28.9967 3.57867 28.978 3.42C28.9594 3.252 28.95 3.10267 28.95 2.972C29.09 2.972 29.2767 2.97667 29.51 2.986C29.7527 2.986 30 2.99067 30.252 3C30.504 3 30.728 3 30.924 3C31.1947 3 31.498 3 31.834 3C32.17 2.99067 32.4594 2.98133 32.702 2.972C32.702 3.112 32.6974 3.252 32.688 3.392C32.6787 3.532 32.6507 3.672 32.604 3.812C32.3147 3.84933 32.1234 3.94267 32.03 4.092C31.9367 4.24133 31.89 4.554 31.89 5.03V7.466L34.704 4.414C34.6667 4.19933 34.5967 4.05467 34.494 3.98C34.3914 3.90533 34.2327 3.84933 34.018 3.812C33.962 3.56 33.934 3.28 33.934 2.972C34.074 2.972 34.2514 2.97667 34.466 2.986C34.69 2.986 34.9187 2.99067 35.152 3C35.3947 3 35.6094 3 35.796 3C36.076 3 36.398 3 36.762 3C37.126 2.99067 37.434 2.98133 37.686 2.972C37.686 3.112 37.6767 3.252 37.658 3.392C37.6487 3.532 37.6207 3.672 37.574 3.812C37.35 3.84 37.1774 3.882 37.056 3.938C36.944 3.994 36.8647 4.10133 36.818 4.26C36.7807 4.41867 36.762 4.65667 36.762 4.974V7.998C36.762 8.32467 36.7854 8.572 36.832 8.74C36.8787 8.89867 36.958 9.01067 37.07 9.076C37.1914 9.132 37.364 9.16933 37.588 9.188C37.616 9.28133 37.6394 9.412 37.658 9.58C37.6767 9.748 37.686 9.89733 37.686 10.028C37.4807 10.0187 37.2147 10.0093 36.888 10C36.5707 10 36.2347 10 35.88 10C35.5347 10 35.1847 10 34.83 10C34.4847 10.0093 34.186 10.0187 33.934 10.028C33.934 9.90667 33.9434 9.762 33.962 9.594C33.9807 9.41667 34.0087 9.28133 34.046 9.188C34.2327 9.16933 34.3774 9.132 34.48 9.076C34.5827 9.01067 34.6527 8.89867 34.69 8.74C34.7274 8.572 34.746 8.32467 34.746 7.998V5.548L31.932 8.642C31.9694 8.84733 32.0394 8.98733 32.142 9.062C32.254 9.12733 32.4127 9.16933 32.618 9.188C32.646 9.28133 32.6647 9.412 32.674 9.58C32.6927 9.748 32.702 9.89733 32.702 10.028C32.506 10.0187 32.2587 10.0093 31.96 10C31.6614 10 31.3394 10 30.994 10C30.6394 10 30.2754 10 29.902 10C29.5287 10.0093 29.2114 10.0187 28.95 10.028ZM43.4687 10.126C42.6287 10.126 41.896 9.97667 41.2707 9.678C40.6547 9.37933 40.174 8.95933 39.8287 8.418C39.4927 7.87667 39.3247 7.23733 39.3247 6.5C39.3247 5.76267 39.4974 5.128 39.8427 4.596C40.1974 4.05467 40.692 3.63933 41.3267 3.35C41.9614 3.05133 42.7034 2.902 43.5527 2.902C44.3834 2.902 45.1114 3.04667 45.7367 3.336C46.362 3.616 46.8474 4.01733 47.1927 4.54C47.538 5.06267 47.7107 5.688 47.7107 6.416C47.7107 7.15333 47.538 7.802 47.1927 8.362C46.8474 8.91267 46.3527 9.34667 45.7087 9.664C45.074 9.972 44.3274 10.126 43.4687 10.126ZM43.6367 9.286C44.262 9.286 44.7427 9.048 45.0787 8.572C45.424 8.08667 45.5967 7.44267 45.5967 6.64C45.5967 5.744 45.3867 5.03467 44.9667 4.512C44.5467 3.98933 44.0054 3.728 43.3427 3.728C42.736 3.728 42.2694 3.952 41.9427 4.4C41.616 4.83867 41.4527 5.45933 41.4527 6.262C41.4527 6.85 41.5414 7.37267 41.7187 7.83C41.896 8.278 42.148 8.63267 42.4747 8.894C42.8014 9.15533 43.1887 9.286 43.6367 9.286ZM48.9728 10.028C48.9728 9.86933 48.9774 9.72 48.9868 9.58C49.0054 9.44 49.0334 9.30933 49.0708 9.188C49.3788 9.16933 49.6074 9.03867 49.7568 8.796C49.9154 8.544 50.0274 8.082 50.0928 7.41L50.4148 5.044C50.4614 4.53067 50.4288 4.19933 50.3168 4.05C50.2048 3.90067 49.9761 3.826 49.6308 3.826C49.5841 3.69533 49.5561 3.56467 49.5468 3.434C49.5374 3.30333 49.5328 3.14933 49.5328 2.972C49.6448 2.972 49.7894 2.97667 49.9668 2.986C50.1534 2.986 50.3401 2.99067 50.5268 3C50.7134 3 50.8721 3 51.0028 3C51.1241 3 51.2781 3 51.4648 3C51.6514 2.99067 51.8334 2.986 52.0108 2.986C52.1974 2.97667 52.3374 2.972 52.4308 2.972L54.8108 7.438L56.9808 2.972C57.1768 2.98133 57.4288 2.99067 57.7368 3C58.0541 3 58.3061 3 58.4928 3C58.6701 3 58.9034 3 59.1928 3C59.4914 2.99067 59.7294 2.98133 59.9068 2.972C59.9068 3.12133 59.8974 3.27533 59.8788 3.434C59.8694 3.58333 59.8461 3.714 59.8088 3.826C59.4634 3.826 59.2301 3.91467 59.1088 4.092C58.9874 4.26 58.9548 4.57733 59.0108 5.044L59.3888 7.746C59.4448 8.17533 59.5008 8.488 59.5568 8.684C59.6221 8.88 59.7108 9.006 59.8228 9.062C59.9441 9.118 60.1074 9.16 60.3128 9.188C60.3501 9.30933 60.3734 9.44 60.3828 9.58C60.3921 9.71067 60.3968 9.86 60.3968 10.028C60.2848 10.0187 60.0981 10.014 59.8368 10.014C59.5754 10.014 59.3001 10.0093 59.0108 10C58.7308 10 58.4974 10 58.3108 10C58.1241 10 57.9141 10 57.6808 10C57.4568 10.0093 57.2374 10.014 57.0228 10.014C56.8174 10.0233 56.6588 10.028 56.5468 10.028C56.5468 9.85067 56.5561 9.70133 56.5748 9.58C56.5934 9.44933 56.6168 9.31867 56.6448 9.188C56.8968 9.16 57.0788 9.118 57.1908 9.062C57.3121 8.99667 57.3821 8.87533 57.4008 8.698C57.4194 8.51133 57.4054 8.23133 57.3588 7.858L56.9808 4.974L54.6568 9.804C54.3674 9.89733 54.0688 9.92533 53.7608 9.888L51.2408 4.974L50.9188 7.354C50.8628 7.84867 50.8488 8.22667 50.8768 8.488C50.9141 8.74933 50.9981 8.92667 51.1288 9.02C51.2594 9.11333 51.4414 9.16933 51.6748 9.188C51.7028 9.30933 51.7214 9.44 51.7308 9.58C51.7494 9.72 51.7588 9.86933 51.7588 10.028C51.6094 10.0187 51.4041 10.0093 51.1428 10C50.8908 10 50.6481 10 50.4148 10C50.1814 10 49.9154 10.0047 49.6168 10.014C49.3274 10.0233 49.1128 10.028 48.9728 10.028ZM61.8582 10.028C61.8582 9.90667 61.8676 9.762 61.8862 9.594C61.9142 9.41667 61.9422 9.28133 61.9702 9.188C62.1942 9.16933 62.3622 9.132 62.4742 9.076C62.5862 9.01067 62.6609 8.89867 62.6982 8.74C62.7449 8.572 62.7682 8.32467 62.7682 7.998V4.974C62.7682 4.65667 62.7449 4.42333 62.6982 4.274C62.6609 4.11533 62.5862 4.008 62.4742 3.952C62.3622 3.88667 62.1942 3.84 61.9702 3.812C61.9329 3.70933 61.9049 3.57867 61.8862 3.42C61.8676 3.252 61.8582 3.10267 61.8582 2.972C61.9982 2.972 62.1849 2.97667 62.4182 2.986C62.6609 2.986 62.9082 2.99067 63.1602 3C63.4122 3 63.6362 3 63.8322 3C64.1029 3 64.4062 3 64.7422 3C65.0782 2.99067 65.3676 2.98133 65.6102 2.972C65.6102 3.112 65.6056 3.252 65.5962 3.392C65.5869 3.532 65.5589 3.672 65.5122 3.812C65.2229 3.84933 65.0316 3.94267 64.9382 4.092C64.8449 4.24133 64.7982 4.554 64.7982 5.03V7.466L67.6122 4.414C67.5749 4.19933 67.5049 4.05467 67.4022 3.98C67.2996 3.90533 67.1409 3.84933 66.9262 3.812C66.8702 3.56 66.8422 3.28 66.8422 2.972C66.9822 2.972 67.1596 2.97667 67.3742 2.986C67.5982 2.986 67.8269 2.99067 68.0602 3C68.3029 3 68.5176 3 68.7042 3C68.9842 3 69.3062 3 69.6702 3C70.0342 2.99067 70.3422 2.98133 70.5942 2.972C70.5942 3.112 70.5849 3.252 70.5662 3.392C70.5569 3.532 70.5289 3.672 70.4822 3.812C70.2582 3.84 70.0856 3.882 69.9642 3.938C69.8522 3.994 69.7729 4.10133 69.7262 4.26C69.6889 4.41867 69.6702 4.65667 69.6702 4.974V7.998C69.6702 8.32467 69.6936 8.572 69.7402 8.74C69.7869 8.89867 69.8662 9.01067 69.9782 9.076C70.0996 9.132 70.2722 9.16933 70.4962 9.188C70.5242 9.28133 70.5476 9.412 70.5662 9.58C70.5849 9.748 70.5942 9.89733 70.5942 10.028C70.3889 10.0187 70.1229 10.0093 69.7962 10C69.4789 10 69.1429 10 68.7882 10C68.4429 10 68.0929 10 67.7382 10C67.3929 10.0093 67.0942 10.0187 66.8422 10.028C66.8422 9.90667 66.8516 9.762 66.8702 9.594C66.8889 9.41667 66.9169 9.28133 66.9542 9.188C67.1409 9.16933 67.2856 9.132 67.3882 9.076C67.4909 9.01067 67.5609 8.89867 67.5982 8.74C67.6356 8.572 67.6542 8.32467 67.6542 7.998V5.548L64.8402 8.642C64.8776 8.84733 64.9476 8.98733 65.0502 9.062C65.1622 9.12733 65.3209 9.16933 65.5262 9.188C65.5542 9.28133 65.5729 9.412 65.5822 9.58C65.6009 9.748 65.6102 9.89733 65.6102 10.028C65.4142 10.0187 65.1669 10.0093 64.8682 10C64.5696 10 64.2476 10 63.9022 10C63.5476 10 63.1836 10 62.8102 10C62.4369 10.0093 62.1196 10.0187 61.8582 10.028ZM72.3309 10.028C72.3309 9.89733 72.3402 9.74333 72.3589 9.566C72.3869 9.38867 72.4149 9.24867 72.4429 9.146C72.6669 9.12733 72.8349 9.09 72.9469 9.034C73.0682 8.96867 73.1476 8.852 73.1849 8.684C73.2222 8.516 73.2409 8.264 73.2409 7.928V5.044C73.2409 4.71733 73.2222 4.47467 73.1849 4.316C73.1476 4.15733 73.0682 4.05 72.9469 3.994C72.8349 3.938 72.6669 3.89133 72.4429 3.854C72.4056 3.742 72.3776 3.602 72.3589 3.434C72.3402 3.266 72.3309 3.112 72.3309 2.972C72.4709 2.972 72.6622 2.97667 72.9049 2.986C73.1476 2.986 73.3949 2.99067 73.6469 3C73.9082 3 74.1322 3 74.3189 3C74.5896 3 74.8929 3 75.2289 3C75.5649 2.99067 75.8449 2.98133 76.0689 2.972C76.0689 3.14933 76.0642 3.31267 76.0549 3.462C76.0456 3.602 76.0222 3.73267 75.9849 3.854C75.8076 3.882 75.6676 3.92867 75.5649 3.994C75.4716 4.05 75.4062 4.15733 75.3689 4.316C75.3316 4.47467 75.3129 4.71733 75.3129 5.044V5.912C75.6769 5.912 75.9616 5.884 76.1669 5.828C76.3722 5.772 76.5496 5.65533 76.6989 5.478C76.8576 5.30067 77.0536 5.03467 77.2869 4.68C77.6042 4.176 77.8702 3.798 78.0849 3.546C78.3089 3.294 78.5329 3.126 78.7569 3.042C78.9902 2.958 79.2796 2.916 79.6249 2.916C79.7742 2.916 79.9282 2.92533 80.0869 2.944C80.2456 2.96267 80.3762 2.98133 80.4789 3C80.4602 3.26133 80.4509 3.58333 80.4509 3.966C80.4602 4.34867 80.4882 4.666 80.5349 4.918C80.1802 5.03933 79.8256 5.072 79.4709 5.016C79.4242 4.78267 79.3589 4.61933 79.2749 4.526C79.1909 4.43267 79.0789 4.386 78.9389 4.386C78.8082 4.386 78.6776 4.43267 78.5469 4.526C78.4162 4.61933 78.2576 4.81533 78.0709 5.114C77.8936 5.38467 77.7442 5.59467 77.6229 5.744C77.5016 5.884 77.3709 5.996 77.2309 6.08C77.5109 6.11733 77.7442 6.18267 77.9309 6.276C78.1176 6.36933 78.2856 6.514 78.4349 6.71C78.5936 6.89667 78.7662 7.14867 78.9529 7.466C79.1582 7.83 79.3262 8.11933 79.4569 8.334C79.5876 8.53933 79.7136 8.698 79.8349 8.81C79.9562 8.91267 80.0916 8.98733 80.2409 9.034C80.3902 9.07133 80.5816 9.10867 80.8149 9.146C80.8149 9.29533 80.8056 9.454 80.7869 9.622C80.7682 9.78067 80.7402 9.90667 80.7029 10C80.2549 10 79.8209 10.0047 79.4009 10.014C78.9809 10.0233 78.5516 10.0513 78.1129 10.098C77.9076 9.93 77.7349 9.71067 77.5949 9.44C77.4642 9.16933 77.3382 8.88 77.2169 8.572C77.1049 8.264 76.9696 7.97467 76.8109 7.704C76.6616 7.424 76.4656 7.19533 76.2229 7.018C75.9896 6.84067 75.6862 6.752 75.3129 6.752V7.928C75.3129 8.264 75.3316 8.516 75.3689 8.684C75.4062 8.852 75.4716 8.96867 75.5649 9.034C75.6676 9.09 75.8122 9.12733 75.9989 9.146C76.0456 9.37 76.0689 9.664 76.0689 10.028C75.8822 10.0187 75.6396 10.0093 75.3409 10C75.0516 10 74.7296 10 74.3749 10C74.0296 10 73.6702 10 73.2969 10C72.9236 10.0093 72.6016 10.0187 72.3309 10.028ZM81.8383 10.028C81.8383 9.71067 81.8756 9.42133 81.9503 9.16C82.1463 9.132 82.305 9.05267 82.4263 8.922C82.5476 8.79133 82.7016 8.52533 82.8883 8.124L85.3943 3C85.525 2.972 85.6463 2.95333 85.7583 2.944C85.8796 2.93467 86.0243 2.93 86.1923 2.93L88.9783 8.25C89.1836 8.62333 89.3423 8.866 89.4543 8.978C89.5756 9.09 89.7156 9.15533 89.8743 9.174C89.9023 9.258 89.921 9.37933 89.9303 9.538C89.949 9.68733 89.9583 9.85067 89.9583 10.028C89.8183 10.0187 89.6316 10.0093 89.3983 10C89.1743 10 88.9503 10 88.7263 10C88.5023 10 88.3296 10 88.2083 10C88.0776 10 87.8863 10 87.6343 10C87.3823 10 87.1303 10 86.8783 10C86.6263 10.0093 86.4303 10.0187 86.2903 10.028C86.2903 9.82267 86.2996 9.65933 86.3183 9.538C86.337 9.40733 86.3603 9.286 86.3883 9.174C86.659 9.118 86.8316 9.034 86.9063 8.922C86.981 8.80067 86.9623 8.62333 86.8503 8.39L86.6963 8.054C86.1923 8.054 85.693 8.06333 85.1983 8.082C84.7036 8.09133 84.2183 8.124 83.7423 8.18L83.7143 8.236C83.6023 8.488 83.5836 8.698 83.6583 8.866C83.733 9.034 83.9056 9.13667 84.1763 9.174C84.2043 9.286 84.223 9.412 84.2323 9.552C84.251 9.692 84.2603 9.85067 84.2603 10.028C84.1296 10.0187 83.9243 10.0093 83.6443 10C83.3736 10 83.1356 10 82.9303 10C82.7436 10 82.543 10 82.3283 10C82.123 10.0093 81.9596 10.0187 81.8383 10.028ZM84.7223 6.01L84.1203 7.34H86.3603L85.7443 6.052C85.6416 5.83733 85.5483 5.63667 85.4643 5.45C85.3803 5.26333 85.2963 5.05333 85.2123 4.82C85.1376 5.06267 85.0583 5.27267 84.9743 5.45C84.8996 5.62733 84.8156 5.814 84.7223 6.01Z" fill="#323232"/>
</svg>
