<svg width="16" height="16" viewBox="0 0 16 16" fill="none" xmlns="http://www.w3.org/2000/svg">
<path d="M6.15301 8.3694C5.949 8.16539 5.949 7.83461 6.15301 7.6306L7.6306 6.15301C7.83461 5.949 8.16539 5.949 8.3694 6.15301L9.84699 7.6306C10.051 7.83461 10.051 8.16539 9.84699 8.3694L8.3694 9.84699C8.16539 10.051 7.83461 10.051 7.6306 9.84699L6.15301 8.3694Z" fill="#D9D9D9"/>
<path d="M1.31915 8.77049C0.893618 8.34496 0.893618 7.65504 1.31915 7.22952L7.22951 1.31915C7.65504 0.893618 8.34496 0.893618 8.77049 1.31915L14.6809 7.22951C15.1064 7.65504 15.1064 8.34496 14.6809 8.77048L8.77049 14.6809C8.34496 15.1064 7.65504 15.1064 7.22952 14.6809L1.31915 8.77049Z" stroke="#D9D9D9" stroke-width="2" stroke-linejoin="round"/>
</svg>
