<svg width="90" height="11" fill="none" xmlns="http://www.w3.org/2000/svg"><path d="M5.236.452l3.206 7.21c.187.42.34.737.462.952.121.205.233.35.336.434a.882.882 0 00.378.14c.065.224.098.509.098.854a25.65 25.65 0 00-.588-.028c-.243 0-.49-.005-.742-.014H7.168c-.27.01-.541.014-.812.014-.261.01-.462.019-.602.028 0-.364.037-.649.112-.854.345-.056.546-.159.602-.308.065-.15.019-.406-.14-.77l-.336-.798c-.56 0-1.134.01-1.722.028-.588.01-1.162.033-1.722.07l-.182.49c-.15.373-.187.672-.112.896.075.224.285.355.63.392.065.233.098.518.098.854A8.579 8.579 0 002.296 10h-.798a22.135 22.135 0 00-1.26.042c0-.15.01-.294.028-.434.019-.15.051-.29.098-.42A.937.937 0 00.77 9.02c.112-.093.22-.238.322-.434a8.98 8.98 0 00.392-.854L4.41.522c.14-.028.27-.047.392-.056.121-.01.266-.014.434-.014zm-1.638 4.27l-.7 1.82h2.758l-.784-1.82c-.15-.327-.28-.63-.392-.91-.103-.29-.191-.579-.266-.868a24.39 24.39 0 01-.294.882c-.093.29-.2.588-.322.896zm7.223 5.306c0-.13.01-.285.028-.462a4.11 4.11 0 01.084-.42c.224-.019.392-.056.504-.112.122-.065.2-.182.238-.35.037-.168.056-.42.056-.756V5.044c0-.327-.018-.57-.056-.728-.037-.159-.117-.266-.238-.322a1.87 1.87 0 00-.504-.14 2.081 2.081 0 01-.084-.42 4.226 4.226 0 01-.028-.462c.14 0 .332.005.574.014.243 0 .49.005.742.014h1.582c.336-.01.616-.019.84-.028 0 .177-.004.34-.014.49-.01.14-.033.27-.07.392a1.107 1.107 0 00-.42.14c-.093.056-.159.163-.196.322-.037.159-.056.401-.056.728v.868c.364 0 .649-.028.854-.084.206-.056.383-.173.532-.35.159-.177.355-.443.588-.798.318-.504.583-.882.798-1.134.224-.252.448-.42.672-.504.233-.084.523-.126.868-.126.15 0 .304.01.462.028.159.019.29.037.392.056-.018.261-.028.583-.028.966.01.383.038.7.084.952-.354.121-.71.154-1.064.098-.046-.233-.112-.397-.196-.49a.43.43 0 00-.336-.14.672.672 0 00-.392.14c-.13.093-.29.29-.476.588-.177.27-.326.48-.448.63-.121.14-.252.252-.392.336.28.037.514.103.7.196.187.093.355.238.504.434.159.187.331.439.518.756.205.364.373.653.504.868.13.205.257.364.378.476.122.103.257.177.406.224.15.037.34.075.574.112 0 .15-.01.308-.028.476a1.522 1.522 0 01-.084.378c-.448 0-.882.005-1.302.014-.42.01-.85.037-1.288.084a2.055 2.055 0 01-.518-.658c-.13-.27-.257-.56-.378-.868a5.277 5.277 0 00-.406-.868 2.001 2.001 0 00-.588-.686c-.233-.177-.536-.266-.91-.266v1.176c0 .336.019.588.056.756.037.168.103.285.196.35.103.056.248.093.434.112.047.224.07.518.07.882a40.52 40.52 0 00-.728-.028h-2.044c-.373.01-.695.019-.966.028zm13.74-7.126c.468 0 .925.047 1.373.14.457.093.905.229 1.344.406-.056.233-.093.49-.112.77-.019.27-.028.546-.028.826a1.397 1.397 0 01-.462.126 6.23 6.23 0 01-.56.028c-.019-.513-.163-.882-.434-1.106-.261-.224-.616-.336-1.064-.336-.523 0-.943.117-1.26.35a1.876 1.876 0 00-.686.896c-.13.373-.196.775-.196 1.204 0 .541.093 1.031.28 1.47.196.43.49.77.882 1.022.401.252.905.378 1.512.378.317 0 .644-.033.98-.098a5.133 5.133 0 001.022-.308c.159.14.256.34.294.602a9.02 9.02 0 01-1.26.56c-.476.177-1.04.266-1.694.266-.822 0-1.545-.154-2.17-.462a3.55 3.55 0 01-1.442-1.274c-.345-.55-.518-1.18-.518-1.89 0-.588.112-1.101.336-1.54a3.31 3.31 0 01.938-1.12c.401-.308.85-.537 1.344-.686a5.54 5.54 0 011.582-.224zm4.389 7.126c0-.121.01-.266.028-.434.028-.177.056-.313.084-.406.224-.019.392-.056.504-.112a.497.497 0 00.224-.336c.047-.168.07-.415.07-.742V4.974c0-.317-.023-.55-.07-.7-.037-.159-.112-.266-.224-.322-.112-.065-.28-.112-.504-.14a1.78 1.78 0 01-.084-.392 4.123 4.123 0 01-.028-.448c.14 0 .327.005.56.014.243 0 .49.005.742.014h1.582c.336-.01.625-.019.868-.028 0 .14-.005.28-.014.42-.01.14-.037.28-.084.42-.29.037-.48.13-.574.28-.093.15-.14.462-.14.938v2.436l2.814-3.052c-.037-.215-.107-.36-.21-.434-.103-.075-.261-.13-.476-.168a3.88 3.88 0 01-.084-.84c.14 0 .317.005.532.014.224 0 .453.005.686.014H36.762c.364-.01.672-.019.924-.028 0 .14-.01.28-.028.42-.01.14-.037.28-.084.42a1.82 1.82 0 00-.518.126c-.112.056-.191.163-.238.322a3.366 3.366 0 00-.056.714v3.024c0 .327.023.574.07.742.047.159.126.27.238.336.121.056.294.093.518.112.028.093.051.224.07.392.019.168.028.317.028.448-.205-.01-.471-.019-.798-.028H34.83c-.345.01-.644.019-.896.028 0-.121.01-.266.028-.434a1.6 1.6 0 01.084-.406c.187-.019.331-.056.434-.112.103-.065.173-.177.21-.336.037-.168.056-.415.056-.742v-2.45l-2.814 3.094c.037.205.107.345.21.42.112.065.27.107.476.126.028.093.047.224.056.392.019.168.028.317.028.448-.196-.01-.443-.019-.742-.028h-2.058c-.373.01-.69.019-.952.028zm14.519.098c-.84 0-1.573-.15-2.198-.448a3.454 3.454 0 01-1.442-1.26c-.336-.541-.504-1.18-.504-1.918 0-.737.172-1.372.518-1.904.354-.541.849-.957 1.484-1.246.634-.299 1.376-.448 2.226-.448.83 0 1.558.145 2.184.434.625.28 1.11.681 1.456 1.204.345.523.518 1.148.518 1.876 0 .737-.173 1.386-.518 1.946-.346.55-.84.985-1.484 1.302-.635.308-1.382.462-2.24.462zm.168-.84c.625 0 1.106-.238 1.442-.714.345-.485.518-1.13.518-1.932 0-.896-.21-1.605-.63-2.128-.42-.523-.962-.784-1.624-.784-.607 0-1.074.224-1.4.672-.327.439-.49 1.06-.49 1.862 0 .588.088 1.11.266 1.568.177.448.429.803.756 1.064.326.261.714.392 1.162.392zm5.336.742c0-.159.004-.308.014-.448.018-.14.046-.27.084-.392.308-.019.536-.15.686-.392.158-.252.27-.714.336-1.386l.322-2.366c.046-.513.014-.845-.098-.994-.112-.15-.34-.224-.686-.224a1.472 1.472 0 01-.084-.392 6.553 6.553 0 01-.014-.462c.112 0 .256.005.434.014.186 0 .373.005.56.014h.938c.186-.01.368-.014.546-.014.186-.01.326-.014.42-.014l2.38 4.466 2.17-4.466c.196.01.448.019.756.028h1.456c.298-.01.536-.019.714-.028 0 .15-.01.303-.028.462-.01.15-.033.28-.07.392-.346 0-.579.089-.7.266-.122.168-.154.485-.098.952l.378 2.702c.056.43.112.742.168.938.065.196.154.322.266.378.121.056.284.098.49.126.037.121.06.252.07.392.01.13.014.28.014.448a7.712 7.712 0 00-.56-.014c-.262 0-.537-.005-.826-.014h-1.33c-.224.01-.444.014-.658.014-.206.01-.364.014-.476.014 0-.177.01-.327.028-.448.018-.13.042-.261.07-.392.252-.028.434-.07.546-.126.121-.065.191-.187.21-.364.018-.187.004-.467-.042-.84l-.378-2.884-2.324 4.83c-.29.093-.588.121-.896.084l-2.52-4.914-.322 2.38c-.056.495-.07.873-.042 1.134.037.261.121.439.252.532.13.093.312.15.546.168.028.121.046.252.056.392.018.14.028.29.028.448-.15-.01-.355-.019-.616-.028h-.728c-.234 0-.5.005-.798.014-.29.01-.504.014-.644.014zm12.885 0c0-.121.01-.266.028-.434.028-.177.056-.313.084-.406.224-.019.392-.056.504-.112a.497.497 0 00.224-.336c.047-.168.07-.415.07-.742V4.974c0-.317-.023-.55-.07-.7-.037-.159-.112-.266-.224-.322-.112-.065-.28-.112-.504-.14a1.78 1.78 0 01-.084-.392 4.123 4.123 0 01-.028-.448c.14 0 .327.005.56.014.243 0 .49.005.742.014h1.582c.336-.01.626-.019.868-.028 0 .14-.004.28-.014.42-.01.14-.037.28-.084.42-.29.037-.48.13-.574.28-.093.15-.14.462-.14.938v2.436l2.814-3.052c-.037-.215-.107-.36-.21-.434-.102-.075-.261-.13-.476-.168a3.88 3.88 0 01-.084-.84c.14 0 .318.005.532.014.224 0 .453.005.686.014H69.67c.364-.01.672-.019.924-.028 0 .14-.01.28-.028.42-.01.14-.037.28-.084.42a1.82 1.82 0 00-.518.126c-.112.056-.191.163-.238.322a3.366 3.366 0 00-.056.714v3.024c0 .327.024.574.07.742.047.159.126.27.238.336.122.056.294.093.518.112.028.093.052.224.07.392.019.168.028.317.028.448-.205-.01-.471-.019-.798-.028h-2.058c-.345.01-.644.019-.896.028 0-.121.01-.266.028-.434a1.6 1.6 0 01.084-.406c.187-.019.332-.056.434-.112.103-.065.173-.177.21-.336.038-.168.056-.415.056-.742v-2.45L64.84 8.642c.038.205.108.345.21.42.112.065.27.107.476.126.028.093.047.224.056.392.019.168.028.317.028.448-.196-.01-.443-.019-.742-.028H62.81c-.373.01-.69.019-.952.028zm10.473 0c0-.13.01-.285.028-.462a4.11 4.11 0 01.084-.42c.224-.019.392-.056.504-.112.121-.065.2-.182.238-.35.037-.168.056-.42.056-.756V5.044c0-.327-.019-.57-.056-.728-.037-.159-.117-.266-.238-.322a1.87 1.87 0 00-.504-.14 2.081 2.081 0 01-.084-.42 4.201 4.201 0 01-.028-.462c.14 0 .331.005.574.014.243 0 .49.005.742.014h1.582c.336-.01.616-.019.84-.028 0 .177-.005.34-.014.49-.01.14-.033.27-.07.392a1.107 1.107 0 00-.42.14c-.093.056-.159.163-.196.322-.037.159-.056.401-.056.728v.868c.364 0 .649-.028.854-.084.205-.056.383-.173.532-.35.159-.177.355-.443.588-.798.317-.504.583-.882.798-1.134.224-.252.448-.42.672-.504.233-.084.523-.126.868-.126.15 0 .303.01.462.028.159.019.29.037.392.056a13.9 13.9 0 00-.028.966c.01.383.037.7.084.952-.355.121-.71.154-1.064.098-.047-.233-.112-.397-.196-.49a.43.43 0 00-.336-.14.672.672 0 00-.392.14c-.13.093-.29.29-.476.588-.177.27-.327.48-.448.63-.121.14-.252.252-.392.336.28.037.513.103.7.196.187.093.355.238.504.434.159.187.331.439.518.756.205.364.373.653.504.868.13.205.257.364.378.476.121.103.257.177.406.224.15.037.34.075.574.112 0 .15-.01.308-.028.476a1.531 1.531 0 01-.084.378c-.448 0-.882.005-1.302.014-.42.01-.85.037-1.288.084a2.055 2.055 0 01-.518-.658c-.13-.27-.257-.56-.378-.868a5.277 5.277 0 00-.406-.868 2.001 2.001 0 00-.588-.686c-.233-.177-.537-.266-.91-.266v1.176c0 .336.019.588.056.756.037.168.103.285.196.35.103.056.247.093.434.112.047.224.07.518.07.882-.187-.01-.43-.019-.728-.028h-2.044c-.373.01-.695.019-.966.028zm9.507 0c0-.317.038-.607.112-.868a.777.777 0 00.476-.238c.122-.13.276-.397.462-.798L85.394 3c.131-.028.252-.047.364-.056.122-.01.266-.014.434-.014l2.786 5.32c.206.373.364.616.476.728a.732.732 0 00.42.196c.028.084.047.205.056.364.019.15.028.313.028.49-.14-.01-.326-.019-.56-.028H86.878c-.252.01-.448.019-.588.028a3.372 3.372 0 01.098-.854c.271-.056.444-.14.518-.252.075-.121.056-.299-.056-.532l-.154-.336c-.504 0-1.003.01-1.498.028-.494.01-.98.042-1.456.098l-.028.056c-.112.252-.13.462-.056.63.075.168.248.27.518.308.028.112.047.238.056.378.019.14.028.299.028.476-.13-.01-.336-.019-.616-.028H82.328c-.205.01-.368.019-.49.028zm2.884-4.018l-.602 1.33h2.24l-.616-1.288a28.507 28.507 0 01-.28-.602 8.839 8.839 0 01-.252-.63 4.742 4.742 0 01-.238.63c-.074.177-.158.364-.252.56z" fill="#323232"/></svg>